<svg width="500" height="500" viewBox="0 0 500 500" fill="none" xmlns="http://www.w3.org/2000/svg">
<rect width="500" height="500" rx="50" fill="#FF6332"/>
<path d="M217.2 254.6L202.4 243.4C203.867 241.533 205 239.867 205.8 238.4C206.733 236.933 207.2 235.267 207.2 233.4C207.2 230.067 205.867 226.6 203.2 223C200.533 219.267 197.267 215.667 193.4 212.2C189.533 208.6 185.8 205.333 182.2 202.4C178.6 199.467 175.867 197.133 174 195.4C176 193.533 178.8 191.2 182.4 188.4C186.133 185.6 190.133 182.533 194.4 179.2C198.8 175.733 202.933 172.067 206.8 168.2C210.8 164.333 214.067 160.4 216.6 156.4C219.133 152.267 220.4 148.2 220.4 144.2C220.4 140.067 219.067 136.733 216.4 134.2C213.867 131.667 210.467 130.4 206.2 130.4C200.2 130.4 195.533 132.333 192.2 136.2C188.867 140.067 187.2 144.533 187.2 149.6C187.2 152.533 187.8 155.467 189 158.4C190.333 161.2 192.267 163.867 194.8 166.4C197.467 168.933 200.667 171.2 204.4 173.2L196.8 179C191.733 175.4 187.267 171.6 183.4 167.6C179.667 163.6 176.733 159.467 174.6 155.2C172.6 150.8 171.6 146.2 171.6 141.4C171.6 137.267 172.6 133.267 174.6 129.4C176.6 125.533 179.6 122.4 183.6 120C187.733 117.467 192.933 116.2 199.2 116.2C204.4 116.2 208.933 117.267 212.8 119.4C216.667 121.533 220.133 124.267 223.2 127.6C227.067 131.733 229.933 135.667 231.8 139.4C233.667 143 234.6 147.4 234.6 152.6C234.6 157.133 233.2 161.733 230.4 166.4C227.733 170.933 224.267 175.4 220 179.8C215.867 184.067 211.533 188.133 207 192C202.467 195.733 198.4 199 194.8 201.8C197.2 203.533 200.067 205.6 203.4 208C206.867 210.4 210.267 213.133 213.6 216.2C217.067 219.267 219.867 222.533 222 226C224.267 229.467 225.4 233.133 225.4 237C225.4 240.733 224.6 244 223 246.8C221.4 249.733 219.467 252.333 217.2 254.6ZM296.97 252L277.37 193L278.77 184.6C284.637 182.867 290.104 180.4 295.17 177.2C300.237 174 304.304 170.267 307.37 166C310.437 161.6 311.97 156.867 311.97 151.8C311.97 146.333 310.104 141.8 306.37 138.2C302.637 134.467 297.704 132.6 291.57 132.6C287.037 132.6 282.637 133.467 278.37 135.2C274.104 136.933 270.437 138.933 267.37 141.2L256.77 127C260.637 123.8 265.104 121.267 270.17 119.4C275.237 117.4 280.17 116.4 284.97 116.4C290.437 116.4 295.57 117.867 300.37 120.8C305.304 123.733 309.704 127.4 313.57 131.8C317.704 136.333 320.904 141.333 323.17 146.8C325.437 152.133 326.57 157.6 326.57 163.2C326.57 168.667 325.037 173.8 321.97 178.6C318.904 183.4 314.837 187.667 309.77 191.4C304.704 195 299.104 197.867 292.97 200C286.837 202 280.637 203 274.37 203C271.304 203 268.237 202.4 265.17 201.2C262.104 199.867 259.57 198 257.57 195.6C255.704 193.067 254.77 190 254.77 186.4C254.77 183.333 255.904 180.6 258.17 178.2C260.437 175.8 263.704 174.6 267.97 174.6C271.037 174.6 274.237 175.933 277.57 178.6C280.904 181.133 284.037 185.667 286.97 192.2C287.77 193.933 289.104 196.667 290.97 200.4C292.97 204.133 295.237 208.533 297.77 213.6C300.437 218.667 303.17 224 305.97 229.6C308.904 235.2 311.704 240.667 314.37 246L296.97 252Z" fill="black"/>
<path d="M208.2 402C204.733 402 200.667 401.467 196 400.4C191.333 399.333 186.6 397.333 181.8 394.4C173.533 389.467 168.067 384.667 165.4 380C162.733 375.333 161.4 370.4 161.4 365.2C161.4 359.6 163 354.467 166.2 349.8C169.4 345.133 173.467 340.733 178.4 336.6C183.467 332.467 188.8 328.533 194.4 324.8C200 321.067 205.267 317.467 210.2 314C215.267 310.533 219.4 307.133 222.6 303.8C225.8 300.333 227.4 296.867 227.4 293.4C227.4 290.2 226.733 287.667 225.4 285.8C224.067 283.8 223.4 282.733 223.4 282.6L229.2 277.4C233.067 279.8 236.333 282.733 239 286.2C241.8 289.667 243.2 293.933 243.2 299C243.2 303.8 241.6 308.267 238.4 312.4C235.333 316.4 231.333 320.2 226.4 323.8C221.6 327.4 216.467 330.933 211 334.4C205.533 337.867 200.333 341.4 195.4 345C190.6 348.6 186.6 352.467 183.4 356.6C180.333 360.6 178.8 365.067 178.8 370C178.8 375.733 180.733 380.267 184.6 383.6C188.467 386.8 192.867 388.4 197.8 388.4C201.267 388.4 204.6 387.733 207.8 386.4C211 384.933 213.667 382.867 215.8 380.2C217.933 377.4 219 374.067 219 370.2C219 366.067 217.4 362.267 214.2 358.8C211 355.333 206.933 352.067 202 349C197.067 345.8 191.733 342.6 186 339.4C180.4 336.2 175.133 332.8 170.2 329.2C165.267 325.6 161.2 321.667 158 317.4C154.8 313.133 153.2 308.267 153.2 302.8C153.2 298.133 154.133 294.133 156 290.8C157.867 287.467 160.2 284.667 163 282.4C165.8 280.133 168.533 278.333 171.2 277C174 275.533 176.2 274.533 177.8 274L189.8 286.4C186.867 287.867 183.867 289.6 180.8 291.6C177.867 293.467 175.4 295.667 173.4 298.2C171.4 300.733 170.4 303.8 170.4 307.4C170.4 311.4 171.933 315.067 175 318.4C178.2 321.733 182.267 324.933 187.2 328C192.133 331.067 197.333 334.267 202.8 337.6C208.267 340.8 213.467 344.333 218.4 348.2C223.333 351.933 227.333 356.2 230.4 361C233.6 365.667 235.2 371 235.2 377C235.2 382.333 233.867 386.867 231.2 390.6C228.533 394.333 225.133 397.2 221 399.2C216.867 401.067 212.6 402 208.2 402ZM307.598 365C301.998 365 297.065 364.2 292.798 362.6C288.532 360.867 284.465 358.267 280.598 354.8C274.865 349.467 270.665 344.067 267.998 338.6C265.332 333 263.998 326.867 263.998 320.2C263.998 314.067 265.598 306.933 268.798 298.8C272.132 290.667 277.465 282.267 284.798 273.6L300.798 283.2C294.265 290.667 289.132 298.4 285.398 306.4C281.665 314.267 279.798 322.2 279.798 330.2C279.798 337.133 281.865 342.533 285.998 346.4C290.265 350.133 294.998 352 300.198 352C303.932 352 307.598 351.267 311.198 349.8C314.932 348.333 317.665 345.933 319.398 342.6L319.998 348.4C317.732 345.467 316.265 342.6 315.598 339.8C314.932 336.867 314.598 334.533 314.598 332.8C314.598 327.867 315.865 324.333 318.398 322.2C321.065 319.933 323.932 318.8 326.998 318.8C330.998 318.8 334.332 320.4 336.998 323.6C339.665 326.8 340.998 330.867 340.998 335.8C340.998 341.533 339.398 346.6 336.198 351C333.132 355.4 329.065 358.867 323.998 361.4C318.932 363.8 313.465 365 307.598 365ZM344.398 409.2C343.198 406.8 341.532 403.267 339.398 398.6C337.265 393.933 334.998 388.867 332.598 383.4C330.332 377.8 328.265 372.6 326.398 367.8C324.665 362.867 323.465 359 322.798 356.2L332.198 354.2C334.198 357.933 336.265 361.733 338.398 365.6C340.532 369.333 342.732 373.133 344.998 377C347.398 380.733 349.865 384.533 352.398 388.4C355.065 392.267 357.865 396.2 360.798 400.2L344.398 409.2Z" fill="black"/>
</svg>
